<svg width="50" height="50" viewBox="0 0 50 50" fill="none" xmlns="http://www.w3.org/2000/svg">
<g clip-path="url(#clip0_942_7)">
<path fill-rule="evenodd" clip-rule="evenodd" d="M25.0001 0C18.2104 0 17.3591 0.0287765 14.6926 0.150442C12.0316 0.271809 10.2142 0.694458 8.62404 1.31251C6.98007 1.9513 5.5859 2.80614 4.19598 4.19596C2.80615 5.58588 1.9513 6.98007 1.31251 8.62404C0.694458 10.2142 0.271825 12.0316 0.150458 14.6925C0.0287924 17.359 0 18.2104 0 25C0 31.7896 0.0287924 32.641 0.150458 35.3075C0.271825 37.9684 0.694458 39.7858 1.31251 41.376C1.9513 43.0199 2.80615 44.4141 4.19598 45.804C5.5859 47.1939 6.98007 48.0487 8.62404 48.6876C10.2142 49.3055 12.0316 49.7282 14.6926 49.8496C17.3591 49.9712 18.2104 50 25.0001 50C31.7896 50 32.6409 49.9712 35.3074 49.8496C37.9684 49.7282 39.7857 49.3055 41.3759 48.6876C43.0199 48.0487 44.4141 47.1939 45.804 45.804C47.1938 44.4141 48.0487 43.0199 48.6876 41.376C49.3055 39.7858 49.7282 37.9684 49.8496 35.3075C49.9712 32.641 50 31.7896 50 25C50 18.2104 49.9712 17.359 49.8496 14.6925C49.7282 12.0316 49.3055 10.2142 48.6876 8.62404C48.0487 6.98007 47.1938 5.58588 45.804 4.19596C44.4141 2.80614 43.0199 1.9513 41.3759 1.31251C39.7857 0.694458 37.9684 0.271809 35.3074 0.150442C32.6409 0.0287765 31.7896 0 25.0001 0ZM25.0001 4.50449C31.6753 4.50449 32.466 4.53 35.1021 4.65027C37.5396 4.76142 38.8634 5.16869 39.7443 5.51106C40.9112 5.96458 41.744 6.50632 42.6188 7.3812C43.4937 8.25598 44.0354 9.08878 44.4889 10.2557C44.8313 11.1367 45.2385 12.4604 45.3497 14.8979C45.47 17.534 45.4955 18.3247 45.4955 25C45.4955 31.6753 45.47 32.466 45.3497 35.1021C45.2385 37.5396 44.8313 38.8633 44.4889 39.7443C44.0354 40.9112 43.4937 41.744 42.6188 42.6188C41.744 43.4937 40.9112 44.0354 39.7443 44.4889C38.8634 44.8313 37.5396 45.2386 35.1021 45.3497C32.4664 45.47 31.6758 45.4955 25.0001 45.4955C18.3242 45.4955 17.5337 45.47 14.8979 45.3497C12.4604 45.2386 11.1367 44.8313 10.2557 44.4889C9.08878 44.0354 8.25596 43.4937 7.38118 42.6188C6.5064 41.744 5.96458 40.9112 5.51106 39.7443C5.16869 38.8633 4.76142 37.5396 4.65027 35.1021C4.53 32.466 4.50449 31.6753 4.50449 25C4.50449 18.3247 4.53 17.534 4.65027 14.8979C4.76142 12.4604 5.16869 11.1367 5.51106 10.2557C5.96458 9.08878 6.50631 8.25598 7.38118 7.3812C8.25596 6.50632 9.08878 5.96458 10.2557 5.51106C11.1367 5.16869 12.4604 4.76142 14.8979 4.65027C17.534 4.53 18.3247 4.50449 25.0001 4.50449ZM25.0001 12.1622C17.9098 12.1622 12.1622 17.9098 12.1622 25C12.1622 32.0902 17.9098 37.8378 25.0001 37.8378C32.0902 37.8378 37.8379 32.0902 37.8379 25C37.8379 17.9098 32.0902 12.1622 25.0001 12.1622ZM25.0001 33.3333C20.3976 33.3333 16.6667 29.6024 16.6667 25C16.6667 20.3976 20.3976 16.6667 25.0001 16.6667C29.6024 16.6667 33.3333 20.3976 33.3333 25C33.3333 29.6024 29.6024 33.3333 25.0001 33.3333ZM41.3451 11.655C41.3451 13.3118 40.0019 14.6549 38.345 14.6549C36.6882 14.6549 35.3451 13.3118 35.3451 11.655C35.3451 9.99809 36.6882 8.65491 38.345 8.65491C40.0019 8.65491 41.3451 9.99809 41.3451 11.655Z" fill="#F6F6F6" fill-opacity="0.2"/>
</g>
<defs>
<clipPath id="clip0_942_7">
<rect width="50" height="50" fill="white"/>
</clipPath>
</defs>
</svg>
