<svg width="50" height="50" viewBox="0 0 50 50" fill="none" xmlns="http://www.w3.org/2000/svg">
<path d="M26.832 3.59175C25.723 2.96802 24.277 2.97082 23.167 3.59175C17.6077 6.6598 12.0482 9.72877 6.48775 12.7954C5.40576 13.3646 4.676 14.5265 4.68764 15.7325V34.27C4.67982 35.4995 5.44722 36.6727 6.55711 37.2341C8.15423 38.0838 9.70593 39.0197 11.3319 39.8128C13.2102 40.7358 15.56 40.9398 17.4612 39.9773C19.0045 39.1797 19.69 37.4055 19.688 35.775C19.7005 29.6572 19.69 23.5392 19.6928 17.4213C19.7295 17.1494 19.5253 16.8588 19.2287 16.8653C18.5183 16.8541 17.8069 16.8588 17.0964 16.8634C16.828 16.8381 16.5659 17.0611 16.5862 17.3309C16.5767 23.4094 16.5881 29.4897 16.5805 35.5691C16.5959 36.41 16.0278 37.2181 15.2174 37.5022C13.3456 38.1583 8.00309 34.6894 8.00309 34.6894C7.80703 34.5986 7.68253 34.3859 7.70175 34.1747C7.70175 28.0588 7.7027 21.9427 7.70175 15.8277C7.67479 15.5811 7.82675 15.3591 8.05315 15.2584C13.5943 12.2084 19.1325 9.15085 24.6736 6.099C24.8661 5.97055 25.1344 5.97094 25.3264 6.09994C30.8675 9.15085 36.4067 12.2056 41.9487 15.2558C42.1759 15.3563 42.3214 15.582 42.2983 15.8277C42.2973 21.9427 42.3002 28.0588 42.2964 34.1739C42.3128 34.3903 42.2009 34.6 41.9989 34.695C36.5095 37.7284 30.9577 40.6641 25.518 43.7856C25.2806 43.9217 25.0117 44.0759 24.7458 43.9259C23.3153 43.1347 21.9022 42.3127 20.4764 41.5138C20.3214 41.417 20.1241 41.3755 19.9623 41.4838C19.3231 41.8206 18.7219 42.0934 17.9878 42.3841C16.9569 42.7922 17.1216 42.9591 18.0514 43.5008C19.7187 44.4444 21.3889 45.3842 23.0562 46.3288C24.1539 47.0138 25.6287 47.0625 26.7617 46.4295C32.322 43.3653 37.8806 40.2975 43.442 37.2333C44.5489 36.6688 45.3202 35.5003 45.3123 34.2698V15.7325C45.3231 14.551 44.6212 13.4098 43.5719 12.8322C37.9931 9.74918 32.4117 6.67288 26.832 3.59175Z" fill="#8CC84B"/>
<path d="M35.2216 17.5097C33.0392 16.3422 30.443 16.28 28.0178 16.4327C26.2658 16.6058 24.4231 17.0892 23.1467 18.3452C21.8375 19.6077 21.5525 21.6464 22.1744 23.2945C22.62 24.4592 23.7417 25.2166 24.9017 25.6172C26.3959 26.1447 27.9653 26.3078 29.5352 26.471C30.967 26.6197 32.3994 26.7686 33.7756 27.1941C34.3378 27.3803 34.9925 27.6653 35.1647 28.2771C35.3237 29.0014 35.1494 29.8435 34.5612 30.3467C32.6931 31.8253 27.4966 31.5988 25.6508 30.435C24.9045 29.9392 24.583 29.0616 24.4522 28.2252C24.4377 27.9646 24.2278 27.7255 23.9448 27.7453C23.2362 27.7369 22.5277 27.7388 21.8191 27.7444C21.5719 27.7236 21.3148 27.8996 21.3012 28.1519C21.1556 31.9827 24.6739 33.6527 27.9747 34.0203C29.8605 34.2 31.7877 34.1897 33.6447 33.785C35.0406 33.4672 36.4403 32.8819 37.4012 31.8067C38.5862 30.5 38.8192 28.5546 38.2878 26.9269C37.8816 25.7124 36.7205 24.9333 35.5336 24.5325C33.9195 23.9791 32.0067 23.6816 30.5448 23.5424C28.42 23.34 25.895 23.4227 25.2936 22.0264C25.0537 21.2953 25.2578 20.3875 25.9297 19.9378C27.7073 18.732 31.3253 18.8922 33.1662 19.793C34.0116 20.2163 34.5014 21.0856 34.7036 21.9633C34.7411 22.2211 34.9145 22.4902 35.213 22.4789C35.9167 22.493 36.6205 22.4827 37.3241 22.4836C37.5658 22.5005 37.8305 22.3641 37.8777 22.1166C37.8478 20.2822 36.9111 18.4044 35.2216 17.5097Z" fill="#8CC84B"/>
</svg>
