<svg width="50" height="50" viewBox="0 0 50 50" fill="none" xmlns="http://www.w3.org/2000/svg">
<g clip-path="url(#clip0_944_7)">
<path d="M25 50C38.8071 50 50 38.8071 50 25C50 11.1929 38.8071 0 25 0C11.1929 0 0 11.1929 0 25C0 38.8071 11.1929 50 25 50Z" fill="#13AA52"/>
<path d="M31.6822 21.9453C30.1031 14.9761 26.3711 12.6846 25.9693 11.8091C25.5298 11.1914 25.0845 10.0928 25.0845 10.0928C25.0772 10.0742 25.0655 10.0415 25.0518 10.0098C25.0064 10.6274 24.983 10.8657 24.399 11.4888C23.4947 12.1958 18.855 16.0889 18.4776 24.0068C18.1255 31.3916 23.8121 35.792 24.5811 36.353L24.6685 36.415V36.4097C24.6734 36.4468 24.9126 38.1675 25.0806 39.9907H25.6832C25.8245 38.7019 26.0364 37.4219 26.3179 36.1562L26.3668 36.1245C26.7108 35.8779 27.0387 35.6096 27.3487 35.3213L27.3838 35.2896C29.0186 33.7793 31.9576 30.2861 31.9288 24.7168C31.9227 23.7878 31.8402 22.8608 31.6822 21.9453ZM25.0167 32.1836C25.0167 32.1836 25.0167 21.8262 25.3584 21.8281C25.6251 21.8281 25.9703 35.188 25.9703 35.188C25.4957 35.1309 25.0167 32.9893 25.0167 32.1836Z" fill="white"/>
</g>
<defs>
<clipPath id="clip0_944_7">
<rect width="50" height="50" fill="white"/>
</clipPath>
</defs>
</svg>
