<svg width="51" height="50" viewBox="0 0 51 50" fill="none" xmlns="http://www.w3.org/2000/svg">
<g clip-path="url(#clip0_942_100)">
<path d="M0.986328 25V50H25.9863H50.9863V25V0H25.9863H0.986328V25Z" fill="#007ACC"/>
<path d="M12.0433 25.1659L12.0274 27.2135L15.2814 27.2135H18.5354V36.4595V45.7056H20.837H23.1385V36.4595L23.1385 27.2135H26.3925H29.6465V25.2056C29.6465 24.0945 29.6227 23.1659 29.5909 23.1421C29.5671 23.1103 25.6068 23.0945 20.8052 23.1024L12.0671 23.1262L12.0433 25.1659Z" fill="white"/>
<path d="M41.3312 23.068C42.601 23.3855 43.5693 23.9489 44.4582 24.8696C44.9185 25.3616 45.601 26.2585 45.6566 26.4728C45.6724 26.5362 43.4978 27.9966 42.1804 28.814C42.1328 28.8458 41.9423 28.6394 41.728 28.322C41.0851 27.3855 40.4105 26.9807 39.3788 26.9093C37.8629 26.8061 36.8867 27.5997 36.8947 28.9251C36.8947 29.314 36.9502 29.5442 37.109 29.8616C37.4423 30.5521 38.0613 30.9648 40.0058 31.8061C43.5851 33.3458 45.1169 34.3616 46.0693 35.8061C47.1328 37.4172 47.3709 39.9886 46.6486 41.9013C45.855 43.9807 43.8867 45.3934 41.1169 45.8616C40.2597 46.0124 38.228 45.9886 37.3074 45.822C35.2994 45.4648 33.3947 44.4728 32.2201 43.1712C31.7598 42.6632 30.8629 41.3378 30.9185 41.2426C30.9423 41.2109 31.1486 41.0839 31.3788 40.9489C31.601 40.822 32.4423 40.3378 33.2359 39.8775L34.6725 39.0442L34.974 39.4886C35.3947 40.1315 36.3153 41.0124 36.8709 41.3061C38.4661 42.1474 40.6566 42.0283 41.7359 41.0601C42.1963 40.6394 42.3867 40.2029 42.3867 39.5601C42.3867 38.9807 42.3153 38.7267 42.0137 38.2902C41.6248 37.7347 40.8312 37.2664 38.5772 36.2902C35.9978 35.1791 34.8867 34.4886 33.8709 33.3934C33.2836 32.7585 32.728 31.7426 32.4978 30.8934C32.3074 30.187 32.2598 28.4172 32.4105 27.7029C32.9423 25.2108 34.8232 23.4728 37.5375 22.9569C38.4185 22.7902 40.4661 22.8537 41.3312 23.068Z" fill="white"/>
</g>
<defs>
<clipPath id="clip0_942_100">
<rect width="50" height="50" fill="white" transform="translate(0.986328)"/>
</clipPath>
</defs>
</svg>
