<svg width="50" height="49" viewBox="0 0 50 49" fill="none" xmlns="http://www.w3.org/2000/svg">
<path d="M3.25879 30.6589C0.696619 17.0368 7.46799 3.89902 23.0095 2.15131C20.8663 -0.138737 17.9385 -0.155945 16.5914 0.122626C14.2129 0.880647 14.2876 2.41979 11.5896 4.4079C8.90747 5.93982 7.56039 4.76666 5.60655 6.35477C3.65689 7.93103 5.01731 11.5495 4.19962 12.253C3.38793 13.66 0.870077 14.9133 0.411744 16.6904C0.0329557 18.963 1.43988 20.5864 1.38577 22.5344C1.54811 24.1578 -0.230356 25.0758 0.0251635 26.3915C0.790531 28.5409 2.26575 29.8346 2.9612 30.431C3.12068 30.5434 3.28912 30.8202 3.25879 30.6589Z" fill="#FF0090"/>
<path d="M30.9131 11.8022C30.3453 11.8022 29.885 11.3418 29.885 10.774C29.885 10.2063 30.3453 9.7459 30.9131 9.7459C31.4809 9.7459 31.9413 10.2063 31.9413 10.774C31.9413 11.3418 31.4809 11.8022 30.9131 11.8022ZM3.85865 32.1448C1.39642 20.3057 9.0156 10.4133 23.7703 15.2835C32.4279 20.3483 43.3189 20.0185 43.81 16.7445C45.0222 12.8196 38.2905 4.7315 28.2256 2.62111C8.25803 -1.27499 -2.50663 20.3057 3.85865 32.1448Z" fill="url(#paint0_radial_942_94)"/>
<path d="M36.6129 33.4652C39.5778 33.7864 42.3922 33.0748 45.0003 30.949C41.0601 35.344 36.1332 37.5537 30.4802 38.155C33.1793 40.4497 35.7823 41.4834 38.2724 41.041C31.3531 42.9503 25.5561 40.8487 18.5043 33.826C18.135 35.7165 20.1317 38.662 22.1897 40.5422C10.2488 35.3653 9.2019 19.2389 23.7626 15.272C8.66871 8.02017 0.133935 22.1106 4.32719 33.6591C8.43002 42.5538 19.3632 49.4011 31.346 47.8953C37.1665 47.1824 45.8581 43.1694 49.4088 33.6591C46.9063 35.9048 42.4331 37.8606 40.4369 38.0107C47.193 34.6343 50.84 28.897 49.8163 21.0555C48.4169 24.3872 46.5705 26.9459 44.2608 28.7033C49.167 21.0555 48.3251 17.1026 44.6937 12.7582C47.2911 19.901 43.9312 27.8286 36.6129 33.4652Z" fill="url(#paint1_radial_942_94)"/>
<path d="M33.1459 41.6942C32.6333 41.5984 34.308 42.3726 31.0702 41.5154C27.8324 40.6583 24.5356 39.8323 18.5044 33.826C18.1351 35.7165 20.1318 38.662 22.1898 40.5422C27.7453 44.4167 23.9671 42.6046 32.432 45.5309C33.1113 44.1788 33.1459 42.9774 33.1459 41.6942Z" fill="url(#paint2_linear_942_94)"/>
<path d="M22.3829 11.2694C22.3829 11.2694 23.1188 10.1832 23.4053 9.69326C23.7564 9.09291 24.2955 7.99865 24.2955 7.99865C24.2955 7.99865 18.6306 6.15044 17.2404 5.92493C12.9188 7.04675 12.903 8.85731 15.3192 11.6286C15.588 11.9371 22.3829 11.2694 22.3829 11.2694Z" fill="url(#paint3_linear_942_94)"/>
<defs>
<radialGradient id="paint0_radial_942_94" cx="0" cy="0" r="1" gradientUnits="userSpaceOnUse" gradientTransform="translate(3303.84 1137.12) scale(3767.51 2695.07)">
<stop stop-color="#F80090"/>
<stop offset="1" stop-color="#4D008E"/>
</radialGradient>
<radialGradient id="paint1_radial_942_94" cx="0" cy="0" r="1" gradientUnits="userSpaceOnUse" gradientTransform="translate(3215.09 168.22) scale(3818.76 2888.74)">
<stop stop-color="#57008E"/>
<stop offset="0.291746" stop-color="#5C008E"/>
<stop offset="1" stop-color="#F80090"/>
</radialGradient>
<linearGradient id="paint2_linear_942_94" x1="286.311" y1="33.826" x2="961.335" y2="1169.05" gradientUnits="userSpaceOnUse">
<stop stop-color="#F70090"/>
<stop offset="0.669713" stop-color="#E50090"/>
<stop offset="0.827148" stop-color="#D6008F" stop-opacity="0.2"/>
<stop offset="1" stop-color="#C10090" stop-opacity="0"/>
</linearGradient>
<linearGradient id="paint3_linear_942_94" x1="701.4" y1="419.897" x2="603.435" y2="232.276" gradientUnits="userSpaceOnUse">
<stop stop-color="#B2008F" stop-opacity="0.15134"/>
<stop offset="0.400351" stop-color="#F70090" stop-opacity="0.4"/>
<stop offset="0.648996" stop-color="#F60090" stop-opacity="0.891668"/>
<stop offset="1" stop-color="#FF0090"/>
</linearGradient>
</defs>
</svg>
